<svg width="41" height="40" viewBox="0 0 41 40" fill="none" xmlns="http://www.w3.org/2000/svg">
<path d="M28.832 3.3335H12.1654C7.56299 3.3335 3.83203 7.06446 3.83203 11.6668V28.3335C3.83203 32.9359 7.56299 36.6668 12.1654 36.6668H28.832C33.4344 36.6668 37.1654 32.9359 37.1654 28.3335V11.6668C37.1654 7.06446 33.4344 3.3335 28.832 3.3335Z" stroke="white" stroke-width="2" stroke-linecap="round" stroke-linejoin="round"/>
<path d="M27.1675 18.9495C27.3732 20.3366 27.1362 21.7532 26.4904 22.9979C25.8446 24.2425 24.8227 25.2519 23.5702 25.8823C22.3177 26.5127 20.8982 26.7322 19.5138 26.5094C18.1294 26.2866 16.8504 25.633 15.8589 24.6415C14.8673 23.6499 14.2137 22.371 13.9909 20.9865C13.7682 19.6021 13.9876 18.1827 14.618 16.9301C15.2485 15.6776 16.2578 14.6558 17.5025 14.0099C18.7471 13.3641 20.1637 13.1272 21.5508 13.3329C22.9657 13.5427 24.2756 14.202 25.287 15.2134C26.2984 16.2248 26.9577 17.5347 27.1675 18.9495Z" stroke="white" stroke-width="2" stroke-linecap="round" stroke-linejoin="round"/>
<path d="M29.668 10.8335H29.6832" stroke="white" stroke-width="2" stroke-linecap="round" stroke-linejoin="round"/>
</svg>
