<svg width="18" height="18" viewBox="0 0 18 18" fill="none" xmlns="http://www.w3.org/2000/svg">
<path d="M11.3614 7.04199C11.3614 7.04199 10.1504 10.4553 9.57501 11.0512C8.99954 11.6472 8.04992 11.6638 7.45401 11.0883C6.85806 10.5128 6.84149 9.56319 7.41696 8.96728C7.99244 8.37137 11.3614 7.04199 11.3614 7.04199Z" fill="#242424" stroke="#242424" stroke-width="2" stroke-linejoin="round"/>
<path d="M14.5685 14.5685C15.9936 13.1434 16.875 11.1746 16.875 9C16.875 4.65075 13.3492 1.125 9 1.125C4.65075 1.125 1.125 4.65075 1.125 9C1.125 11.1746 2.00644 13.1434 3.43153 14.5685" stroke="#242424" stroke-width="2" stroke-linecap="round" stroke-linejoin="round"/>
<path d="M9 1.5V3" stroke="#242424" stroke-width="2" stroke-linecap="round" stroke-linejoin="round"/>
<path d="M14.567 4.17822L13.4013 5.12217" stroke="#242424" stroke-width="2" stroke-linecap="round" stroke-linejoin="round"/>
<path d="M15.946 10.2122L14.4844 9.87476" stroke="#242424" stroke-width="2" stroke-linecap="round" stroke-linejoin="round"/>
<path d="M2.05408 10.2122L3.51563 9.87476" stroke="#242424" stroke-width="2" stroke-linecap="round" stroke-linejoin="round"/>
<path d="M3.43298 4.17822L4.5987 5.12217" stroke="#242424" stroke-width="2" stroke-linecap="round" stroke-linejoin="round"/>
</svg>
