<svg width="18" height="18" viewBox="0 0 18 18" fill="none" xmlns="http://www.w3.org/2000/svg">
<path d="M11.3616 7.04199C11.3616 7.04199 10.1506 10.4553 9.57513 11.0512C8.99966 11.6472 8.05005 11.6638 7.45413 11.0883C6.85818 10.5128 6.84161 9.56319 7.41708 8.96728C7.99256 8.37137 11.3616 7.04199 11.3616 7.04199Z" fill="white" stroke="white" stroke-width="2" stroke-linejoin="round"/>
<path d="M14.5685 14.5685C15.9936 13.1434 16.875 11.1746 16.875 9C16.875 4.65075 13.3492 1.125 9 1.125C4.65075 1.125 1.125 4.65075 1.125 9C1.125 11.1746 2.00644 13.1434 3.43153 14.5685" stroke="white" stroke-width="2" stroke-linecap="round" stroke-linejoin="round"/>
<path d="M9 1.5V3" stroke="white" stroke-width="2" stroke-linecap="round" stroke-linejoin="round"/>
<path d="M14.5671 4.17822L13.4014 5.12217" stroke="white" stroke-width="2" stroke-linecap="round" stroke-linejoin="round"/>
<path d="M15.9459 10.2122L14.4844 9.87476" stroke="white" stroke-width="2" stroke-linecap="round" stroke-linejoin="round"/>
<path d="M2.0542 10.2122L3.51575 9.87476" stroke="white" stroke-width="2" stroke-linecap="round" stroke-linejoin="round"/>
<path d="M3.43311 4.17822L4.59882 5.12217" stroke="white" stroke-width="2" stroke-linecap="round" stroke-linejoin="round"/>
</svg>
