<svg width="41" height="40" viewBox="0 0 41 40" fill="none" xmlns="http://www.w3.org/2000/svg">
<path d="M38.8346 5.00016C37.2386 6.12595 35.4715 6.98701 33.6013 7.55016C32.5975 6.39601 31.2635 5.57798 29.7797 5.2067C28.2959 4.83543 26.7338 4.92882 25.3048 5.47425C23.8757 6.01968 22.6487 6.99083 21.7896 8.25635C20.9305 9.52188 20.4808 11.0207 20.5013 12.5502V14.2168C17.5724 14.2928 14.6701 13.6432 12.053 12.3259C9.43587 11.0086 7.18516 9.06455 5.5013 6.66682C5.5013 6.66682 -1.16536 21.6668 13.8346 28.3335C10.4022 30.6634 6.31323 31.8317 2.16797 31.6668C17.168 40.0002 35.5013 31.6668 35.5013 12.5002C35.4998 12.0359 35.4551 11.5728 35.368 11.1168C37.069 9.43931 38.2693 7.32135 38.8346 5.00016V5.00016Z" stroke="white" stroke-width="2" stroke-linecap="round" stroke-linejoin="round"/>
</svg>
