<svg width="36" height="36" viewBox="0 0 36 36" fill="none" xmlns="http://www.w3.org/2000/svg">
<rect width="36" height="36" rx="4" fill="#F7F7F7"/>
<path d="M28.7998 9.21001C27.8422 9.88548 26.7819 10.4021 25.6598 10.74C25.0575 10.0475 24.2571 9.5567 23.3668 9.33393C22.4765 9.11117 21.5393 9.1672 20.6819 9.49446C19.8245 9.82172 19.0882 10.4044 18.5728 11.1637C18.0573 11.923 17.7875 12.8223 17.7998 13.74V14.74C16.0424 14.7856 14.3011 14.3958 12.7308 13.6055C11.1605 12.8151 9.81012 11.6486 8.7998 10.21C8.7998 10.21 4.7998 19.21 13.7998 23.21C11.7403 24.608 9.28696 25.3089 6.7998 25.21C15.7998 30.21 26.7998 25.21 26.7998 13.71C26.7989 13.4315 26.7721 13.1536 26.7198 12.88C27.7404 11.8735 28.4606 10.6027 28.7998 9.21001V9.21001Z" stroke="#CA0928" stroke-linecap="round" stroke-linejoin="round"/>
</svg>
