<svg width="36" height="36" viewBox="0 0 36 36" fill="none" xmlns="http://www.w3.org/2000/svg">
<rect width="36" height="36" rx="4" fill="#F7F7F7"/>
<path d="M10.2589 22.5936C9.14076 20.7086 8.74916 18.4802 9.15768 16.327C9.56621 14.1737 10.7468 12.2436 12.4776 10.8991C14.2085 9.55462 16.3707 8.88826 18.5581 9.02514C20.7455 9.16202 22.8078 10.0927 24.3575 11.6425C25.9073 13.1923 26.838 15.2545 26.9749 17.4419C27.1118 19.6293 26.4455 21.7915 25.101 23.5224C23.7565 25.2533 21.8264 26.4338 19.6732 26.8424C17.5199 27.2509 15.2915 26.8593 13.4065 25.7411L13.4065 25.741L10.2981 26.6292C10.1695 26.6659 10.0334 26.6676 9.90391 26.634C9.77443 26.6005 9.65628 26.5329 9.56171 26.4384C9.46713 26.3438 9.39956 26.2256 9.36601 26.0961C9.33246 25.9667 9.33415 25.8306 9.37089 25.702L10.259 22.5935L10.2589 22.5936Z" stroke="#CA0928" stroke-linecap="round" stroke-linejoin="round"/>
<path d="M20.2607 23.25C19.274 23.2514 18.2967 23.0581 17.3848 22.6811C16.4729 22.3042 15.6444 21.751 14.9467 21.0533C14.249 20.3556 13.6958 19.5271 13.3189 18.6152C12.9419 17.7033 12.7486 16.726 12.75 15.7393C12.7522 15.0448 13.0299 14.3795 13.522 13.8894C14.0141 13.3993 14.6805 13.1244 15.375 13.125V13.125C15.4889 13.125 15.6008 13.1551 15.6993 13.2123C15.7979 13.2695 15.8795 13.3517 15.936 13.4506L17.0321 15.3686C17.0982 15.4843 17.1323 15.6155 17.1309 15.7487C17.1294 15.8819 17.0926 16.0124 17.024 16.1266L16.1438 17.5937C16.5967 18.5986 17.4014 19.4033 18.4063 19.8562V19.8562L19.8734 18.976C19.9876 18.9074 20.118 18.8706 20.2513 18.8691C20.3845 18.8677 20.5157 18.9018 20.6313 18.9679L22.5494 20.064C22.6483 20.1205 22.7305 20.2021 22.7877 20.3007C22.8449 20.3992 22.875 20.5111 22.875 20.625V20.625C22.873 21.3187 22.5973 21.9837 22.1077 22.4752C21.6182 22.9667 20.9544 23.2452 20.2607 23.25V23.25Z" stroke="#CA0928" stroke-linecap="round" stroke-linejoin="round"/>
</svg>
