<svg width="16" height="16" viewBox="0 0 16 16" fill="none" xmlns="http://www.w3.org/2000/svg">
<g clip-path="url(#clip0_3770_23349)">
<path d="M8.00004 3.3335C5.42677 3.3335 3.33334 5.42692 3.33334 8.00013C3.33334 10.5733 5.42683 12.6668 8.00004 12.6668C10.5732 12.6668 12.6667 10.5733 12.6667 8.00013C12.6667 5.42692 10.5732 3.3335 8.00004 3.3335ZM12.0691 7.7026H9.80477C9.75851 7.41645 9.64547 7.15254 9.48244 6.92694L11.081 5.32842C11.6421 5.97461 12.0034 6.79801 12.0691 7.7026ZM8.29283 3.9307C9.19688 3.99517 10.02 4.35509 10.6665 4.91464L9.06837 6.51287C8.84277 6.3499 8.57892 6.23692 8.29283 6.19066V3.9307ZM7.70719 3.9307V6.1906C7.4211 6.23686 7.15719 6.34984 6.93159 6.51287L5.33336 4.9147C5.97991 4.35515 6.80313 3.99517 7.70719 3.9307ZM4.91888 5.32848L6.51746 6.927C6.35443 7.15254 6.24145 7.41645 6.19519 7.70254H3.93091C3.99656 6.79801 4.35785 5.97467 4.91888 5.32848ZM3.93025 8.28818H6.19525C6.24145 8.57427 6.35449 8.83818 6.51752 9.06378L4.91455 10.6667C4.35399 10.019 3.99377 9.19407 3.93025 8.28818ZM7.70719 12.0696C6.8007 12.0049 5.97564 11.6433 5.32826 11.0812L6.93159 9.47785C7.15719 9.64088 7.4211 9.75386 7.70719 9.80012V12.0696ZM7.70719 9.19769V9.20196C7.58081 9.17124 7.4622 9.12131 7.35414 9.05524L7.35693 9.05245C7.18791 8.94938 7.04593 8.8074 6.94286 8.63832L6.94013 8.64105C6.87406 8.53299 6.82413 8.41444 6.79341 8.28806H6.79762C6.77479 8.19406 6.76138 8.09633 6.76138 7.99527C6.76138 7.89421 6.77485 7.79648 6.79762 7.70248H6.79341C6.82413 7.57616 6.874 7.45761 6.94013 7.34955L6.94286 7.35228C7.04593 7.18326 7.18797 7.04122 7.35693 6.93821L7.35414 6.93542C7.4622 6.86935 7.58081 6.81936 7.70719 6.7887V6.79297C7.80125 6.77014 7.89892 6.75667 8.00004 6.75667C8.10116 6.75667 8.19883 6.77014 8.29289 6.79297V6.7887C8.41927 6.81942 8.53782 6.86929 8.64582 6.93536L8.64303 6.93815C8.81211 7.04116 8.95409 7.1832 9.05716 7.35222L9.05989 7.34949C9.12602 7.45755 9.17595 7.57616 9.20667 7.70254H9.20246C9.22529 7.79654 9.2387 7.89427 9.2387 7.99533C9.2387 8.09639 9.22523 8.19412 9.20246 8.28812H9.20667C9.17595 8.4145 9.12607 8.53311 9.05989 8.64117L9.05716 8.63844C8.95409 8.80746 8.81205 8.94944 8.64303 9.05251L8.64582 9.05524C8.53782 9.12131 8.41927 9.17124 8.29289 9.20196V9.19769C8.19883 9.22052 8.10116 9.23399 8.00004 9.23399C7.89892 9.23399 7.80125 9.22058 7.70719 9.19769ZM8.29283 12.0696V9.80012C8.57892 9.75386 8.84277 9.64088 9.06837 9.47791L10.6716 11.0812C10.0243 11.6433 9.19926 12.0049 8.29283 12.0696ZM11.0854 10.6667L9.4825 9.06384C9.64553 8.83824 9.75851 8.57433 9.80483 8.28818H12.0698C12.0062 9.19407 11.646 10.019 11.0854 10.6667Z" fill="#242424"/>
<rect x="1.16669" y="1.16675" width="13.6667" height="13.6667" rx="6.83333" stroke="#242424"/>
</g>
<defs>
<clipPath id="clip0_3770_23349">
<rect width="16" height="16" fill="white"/>
</clipPath>
</defs>
</svg>
