<svg width="62" height="65" viewBox="0 0 62 65" fill="none" xmlns="http://www.w3.org/2000/svg">
<g clip-path="url(#clip0_689_11515)">
<path d="M61.52 0.475007V38.9102H0.480025V0.475007H61.52ZM62 0H0V39.3852H62V0Z" fill="white"/>
<path d="M22.5339 34.2663H14.7095L5.22656 5.6875H13.0486L22.5339 34.2663Z" fill="white"/>
<path d="M35.6432 34.2663H27.8212L25.7811 28.1221L18.3359 5.6875H26.1579L29.6909 16.3348L33.6031 28.1197L35.6432 34.2663Z" fill="white"/>
<path d="M46.7019 5.60787L34.5429 5.58887L33.1484 9.79031L37.0582 21.5776L40.4184 11.4505H45.7611C51.6822 11.4505 51.6462 19.6325 45.5211 19.6325H41.1529L46.4619 34.2674H54.2839L49.2437 23.5655C58.9066 23.5655 60.505 5.60787 46.7019 5.60787Z" fill="white"/>
<path d="M41.1892 47.1856C41.3062 46.9948 41.3646 46.7745 41.3572 46.5514C41.361 46.3132 41.3014 46.0781 41.1844 45.8698C41.1463 45.7896 41.0864 45.7215 41.0113 45.6733C40.9363 45.625 40.849 45.5985 40.7595 45.5967H40.3203V47.4207H40.7667C40.8519 47.4221 40.9359 47.4011 41.0101 47.3598C41.0844 47.3185 41.1462 47.2583 41.1892 47.1856Z" fill="white"/>
<path d="M49.2344 47.9549H50.4176L49.8296 45.9932L49.2344 47.9549Z" fill="white"/>
<path d="M23.306 51.9639H22.5859V54.9303H23.306C23.4465 54.934 23.5855 54.9002 23.7084 54.8325C23.8313 54.7648 23.9335 54.6657 24.0044 54.5455C24.1958 54.2359 24.291 53.8775 24.278 53.5148C24.2843 53.1281 24.1883 52.7466 23.9996 52.408C23.9388 52.2763 23.8412 52.1645 23.7183 52.0858C23.5954 52.0071 23.4523 51.9648 23.306 51.9639Z" fill="white"/>
<path d="M22.084 49.1941C22.2341 48.9994 22.333 48.7709 22.372 48.5291C22.4713 47.863 22.4713 47.186 22.372 46.5198C22.333 46.278 22.2341 46.0495 22.084 45.8548C22.0169 45.7709 21.9304 45.704 21.8319 45.6598C21.7334 45.6156 21.6256 45.5954 21.5176 45.6007H21.2344V49.4578H21.5176C21.6265 49.4622 21.7348 49.4405 21.8335 49.3946C21.9321 49.3487 22.018 49.2799 22.084 49.1941Z" fill="white"/>
<path d="M14.4766 55.7989H16.4015L15.4462 52.6045L14.4766 55.7989Z" fill="white"/>
<path d="M55.0708 45.8544C55.0041 45.7691 54.9175 45.7011 54.8184 45.656C54.7194 45.6109 54.6108 45.5902 54.502 45.5956H54.2188V49.4526H54.502C54.6108 49.458 54.7194 49.4372 54.8184 49.3922C54.9175 49.3471 55.0041 49.279 55.0708 49.1937C55.2207 48.9987 55.3203 48.7704 55.3612 48.5287C55.4605 47.8626 55.4605 47.1856 55.3612 46.5194C55.3203 46.2777 55.2207 46.0495 55.0708 45.8544Z" fill="white"/>
<path d="M44.9481 49.2514C44.9986 49.3317 45.0695 49.3975 45.1537 49.4421C45.238 49.4867 45.3326 49.5086 45.4281 49.5055C45.9538 49.5055 46.2202 48.8405 46.2202 47.5248C46.2202 46.209 45.9538 45.544 45.4281 45.544C45.3326 45.541 45.238 45.5629 45.1537 45.6075C45.0695 45.6521 44.9986 45.7178 44.9481 45.7981C44.8118 46.0031 44.7248 46.2363 44.6937 46.4797C44.6073 47.1738 44.6073 47.8757 44.6937 48.5698C44.7248 48.8132 44.8118 49.0464 44.9481 49.2514Z" fill="white"/>
<path d="M0 39.3848V64.9995H62V39.3848H0ZM43.6294 45.6786C43.9511 45.1442 44.5535 44.8735 45.4199 44.8735C46.236 44.8735 46.812 45.111 47.136 45.586C47.46 46.061 47.6161 46.7046 47.6161 47.5264C47.6161 48.3482 47.4576 48.9965 47.136 49.4549C46.8144 49.9133 46.236 50.1674 45.4199 50.1674C45.0452 50.1768 44.6723 50.1122 44.3231 49.9774C43.5886 49.6473 43.2166 48.8208 43.2166 47.5169C43.1894 46.879 43.3317 46.2451 43.6294 45.6786ZM38.9036 44.9661H40.9341C41.6541 44.9661 42.1486 45.1466 42.4246 45.5052C42.6552 45.8161 42.7766 46.1932 42.7702 46.5788C42.7702 47.2034 42.5086 47.6285 41.9902 47.847C42.0803 47.9179 42.1519 48.0091 42.199 48.113L43.0222 50.0724H41.5221L40.7733 48.2603C40.7497 48.1871 40.7104 48.1199 40.6581 48.0631C40.5826 48.0308 40.4997 48.0194 40.4181 48.0299H40.3221V50.0724H38.9108L38.9036 44.9661ZM32.3009 45.5266C32.6297 45.0896 33.2105 44.8687 34.0314 44.8687C34.6602 44.8687 35.1138 44.9994 35.3826 45.2535C35.6742 45.5623 35.8445 45.9641 35.8626 46.3864V46.4742L34.701 46.6548V46.5526C34.6939 46.2846 34.6258 46.0215 34.5018 45.7831C34.4405 45.7023 34.3587 45.6391 34.2647 45.5998C34.1706 45.5606 34.0678 45.5468 33.9666 45.5599C33.8431 45.5571 33.7221 45.5944 33.622 45.666C33.5219 45.7376 33.4482 45.8396 33.4121 45.9565C33.2593 46.4466 33.1959 46.9597 33.2249 47.4718C33.2011 47.9999 33.2594 48.5286 33.3977 49.0393C33.4236 49.1629 33.4916 49.2741 33.5903 49.354C33.689 49.434 33.8125 49.478 33.9402 49.4787C34.0553 49.4874 34.1708 49.4667 34.2755 49.4184C34.3801 49.3702 34.4705 49.296 34.5378 49.2032C34.7052 48.8776 34.7799 48.513 34.7538 48.1486V48.094H34.0074V47.334H35.9803V50.0772H35.241L35.061 49.6877C34.9182 49.8426 34.7433 49.9653 34.5482 50.0473C34.3531 50.1292 34.1424 50.1686 33.9305 50.1627C33.1649 50.1627 32.6129 49.9252 32.2889 49.4763C31.9648 49.0274 31.8088 48.36 31.8088 47.486C31.8088 46.612 31.9816 45.9612 32.3009 45.5314V45.5266ZM24.5749 44.9661H25.9861V50.0724H24.5749V44.9661ZM14.6096 44.9661H16.0352L17.9721 48.36V44.9709H18.8842V50.0772H17.4585L15.524 46.6833V50.0772H14.6096V44.9661ZM12.2862 44.9661H13.6975V50.0724H12.2862V44.9661ZM6.82595 44.9661L7.45238 48.1107L8.26363 44.9661H9.52609L10.3037 48.0774L10.9086 44.9661H11.8254L10.7598 50.0724H9.51649L8.68125 46.7878L7.7932 50.0891H6.48033L5.42428 44.9827L6.82595 44.9661ZM9.02687 59.4039C7.8076 59.4039 6.92196 59.0453 6.38673 58.3352C5.8515 57.625 5.59949 56.5468 5.59949 55.0933C5.59949 53.6397 5.8635 52.5496 6.38673 51.8537C6.90996 51.1578 7.86521 50.7826 9.19967 50.7826C10.2221 50.7826 10.9614 50.9916 11.4006 51.4072C11.8398 51.8228 12.099 52.4403 12.1854 53.2502L12.1998 53.3951L10.3205 53.6896L10.3085 53.5257C10.2977 53.0891 10.1878 52.6606 9.98692 52.2717C9.83331 52.0342 9.55009 51.9107 9.11567 51.9107C8.91458 51.9073 8.71776 51.9683 8.55465 52.0848C8.39155 52.2012 8.27092 52.3668 8.21082 52.5567C8.00921 53.0317 7.90841 53.8796 7.90841 55.0885C7.90841 56.2974 8.00921 57.1548 8.21082 57.6322C8.27504 57.8273 8.4014 57.9967 8.57101 58.1149C8.74061 58.233 8.94433 58.2937 9.15167 58.2877C9.6029 58.2877 9.89811 58.1428 10.0517 57.8483C10.2492 57.3748 10.3362 56.8634 10.3061 56.352V56.1929L12.2262 56.276V56.4328C12.1542 57.4232 11.9118 58.1713 11.5062 58.6582C11.1006 59.1451 10.2605 59.4087 9.02687 59.4087V59.4039ZM17.4417 59.2496L16.7721 57.0384H14.1007L13.4407 59.2543H12.0006L14.5544 50.9417H17.0889L19.681 59.2543L17.4417 59.2496ZM19.8202 44.9661H21.7091C22.3788 44.9661 22.9092 45.1324 23.2452 45.4625C23.658 45.8496 23.8692 46.5408 23.8692 47.5193C23.8692 48.3197 23.7156 48.9443 23.4132 49.3908C23.1108 49.8373 22.5324 50.0724 21.7091 50.0724H19.8202V44.9661ZM24.5389 59.2496L23.322 56.2998C23.2848 56.1798 23.2199 56.07 23.1324 55.9791C23.0155 55.9286 22.8871 55.9098 22.7604 55.9245H22.5804V59.2496H20.2858V50.9369H23.5884C24.7453 50.9369 25.5637 51.2314 26.0125 51.8133C26.3852 52.3199 26.5815 52.9325 26.5718 53.559C26.5718 54.5779 26.1469 55.269 25.3069 55.6229C25.4513 55.7397 25.5671 55.8876 25.6453 56.0551L26.9846 59.2472L24.5389 59.2496ZM27.8126 46.6785V50.0724H26.9006V44.9661H28.3215L30.256 48.36V44.9709H31.1704V50.0772H29.7615L27.8126 46.6785ZM36.8059 56.428C36.7339 57.4184 36.4915 58.1666 36.0859 58.6534C35.6802 59.1403 34.8618 59.4039 33.6281 59.4039C32.3945 59.4039 31.5232 59.0453 30.988 58.3352C30.4528 57.625 30.2008 56.5468 30.2008 55.0933C30.2008 53.6397 30.4648 52.5496 30.988 51.8537C31.5112 51.1578 32.4665 50.7826 33.8009 50.7826C34.8234 50.7826 35.5626 50.9916 36.0019 51.4072C36.4411 51.8228 36.7003 52.4403 36.7867 53.2502L36.8011 53.3951L34.9098 53.6849L34.8978 53.521C34.887 53.0844 34.7771 52.6558 34.5762 52.267C34.4226 52.0295 34.1394 51.906 33.7049 51.906C33.5038 51.9025 33.307 51.9636 33.1439 52.08C32.9808 52.1965 32.8602 52.362 32.8001 52.552C32.5985 53.027 32.4977 53.8749 32.4977 55.0838C32.4977 56.2926 32.5985 57.15 32.8001 57.6274C32.8643 57.8226 32.9907 57.9919 33.1603 58.1101C33.3299 58.2283 33.5336 58.2889 33.7409 58.2829C34.1922 58.2829 34.4874 58.1381 34.641 57.8435C34.8385 57.3701 34.9255 56.8586 34.8954 56.3473V56.1882L36.8155 56.2713L36.8059 56.428ZM42.3118 59.2496H37.4827V50.9369H39.7797V58.0003H42.3118V59.2496ZM49.3105 56.4518C49.3105 57.5704 48.9361 58.3684 48.2017 58.8268C47.5757 59.2129 46.8512 59.414 46.1136 59.4063C43.8287 59.4063 42.6718 58.4136 42.6718 56.4542V50.9441H44.9663V56.4565C44.9663 57.5942 45.3815 58.1476 46.236 58.1476C46.6621 58.1668 47.0793 58.0221 47.4 57.7438C47.6929 57.4802 47.8417 57.0455 47.8417 56.4565V50.9441H49.3105V56.4518ZM49.0033 48.7139L48.5929 50.0724H47.7145L49.2841 44.9661H50.8418L52.4355 50.0724H51.0578L50.6426 48.7187L49.0033 48.7139ZM56.2037 58.5751C55.7669 59.0216 55.0252 59.2496 54.0028 59.2496H50.6714V50.9369H53.6764C54.7228 50.9369 55.4741 51.1626 55.9061 51.6091C56.3198 52.015 56.5537 52.5668 56.5565 53.1434C56.5565 53.996 56.2373 54.604 55.6133 54.9579C56.0024 55.1237 56.3303 55.4043 56.5524 55.7613C56.7744 56.1183 56.8798 56.5345 56.8541 56.9529C56.8602 57.2541 56.8049 57.5533 56.6915 57.8328C56.5781 58.1124 56.4089 58.3664 56.1941 58.5798L56.2037 58.5751ZM56.4029 49.4003C56.0933 49.8539 55.5197 50.0819 54.6964 50.0819H52.8027V44.9756H54.6916C55.3637 44.9756 55.8917 45.1419 56.2277 45.472C56.6429 45.8591 56.8517 46.5502 56.8517 47.5288C56.8541 48.3244 56.7005 48.9538 56.4029 49.4003Z" fill="white"/>
<path d="M54.2768 53.2369C54.2768 51.9639 53.6792 51.9639 53.4824 51.9639H52.9688V54.5123H53.4824C53.6792 54.5123 54.2768 54.5123 54.2768 53.2369Z" fill="white"/>
<path d="M53.7296 55.5117H52.9688V58.2359H53.7296C54.092 58.2359 54.5768 58.1029 54.5768 56.9605C54.5895 56.5967 54.5068 56.2359 54.3368 55.9131C54.2855 55.7954 54.2008 55.6949 54.0931 55.6237C53.9854 55.5525 53.8591 55.5136 53.7296 55.5117Z" fill="white"/>
</g>
<defs>
<clipPath id="clip0_689_11515">
<rect width="62" height="65" fill="white"/>
</clipPath>
</defs>
</svg>
