<svg width="167" height="37" viewBox="0 0 167 37" fill="none" xmlns="http://www.w3.org/2000/svg">
<path d="M21.6125 36.8143H11.8638L0 0.197998H9.75178L21.6125 36.8143Z" fill="#CA0928"/>
<path d="M37.9017 36.8143H28.1499L25.6053 28.9673L16.2861 0.197998H26.0379L30.4812 13.9188L35.3571 28.9673L37.9017 36.8143Z" fill="#CA0928"/>
<path d="M55.6449 23.1421L61.6383 36.8081H51.8866L45.2772 18.1209H50.7119C51.2565 18.0928 51.7991 18.0338 52.3372 17.9443C53.5257 17.6263 54.5628 16.8881 55.2614 15.863C55.96 14.8379 56.274 13.5934 56.1467 12.3542C56.0194 11.115 55.4592 9.96281 54.5672 9.10556C53.6753 8.24831 52.5103 7.74253 51.2827 7.67952H51.0183H44.3579L39.5872 22.3991L34.7563 7.21667L37.0306 0.213135L52.187 0.23445C69.3983 0.219225 67.8962 22.4996 55.6449 23.1421Z" fill="#CA0928"/>
<path d="M86.6036 10.2861L84.1641 0.307617H80.2165L77.6749 10.3927L75.7162 0.307617H71.354L74.6557 16.6868H78.7475L81.5234 6.09924L84.1401 16.6868H88.0306L91.3683 0.307617H88.4932L86.6036 10.2861Z" fill="white"/>
<path d="M97.2234 0.307617H92.8071V16.6868H97.2234V0.307617Z" fill="white"/>
<path d="M110.607 11.1966L104.545 0.307617H100.081V16.6868H102.944V5.80083L109.003 16.6868H113.467V0.307617H110.607V11.1966Z" fill="white"/>
<path d="M122.306 0.304565H116.394V16.6868H122.306C124.881 16.6868 126.677 15.9499 127.644 14.4974C128.612 13.0449 129.065 11.0626 129.065 8.49871C129.065 5.36234 128.408 3.14252 127.113 1.90015C126.022 0.843533 124.406 0.304565 122.306 0.304565ZM120.804 2.31428H121.69C122.031 2.29641 122.372 2.36239 122.683 2.50659C122.993 2.6508 123.265 2.86897 123.475 3.14252C123.941 3.76829 124.251 4.49988 124.376 5.27403C124.547 6.33883 124.626 7.41689 124.61 8.49566C124.626 9.57545 124.547 10.6545 124.376 11.7203C124.251 12.4946 123.942 13.2263 123.475 13.8518C123.266 14.1261 122.995 14.3449 122.685 14.4892C122.374 14.6335 122.034 14.699 121.693 14.6801H120.807L120.804 2.31428Z" fill="white"/>
<path d="M135.699 0.307617H131.283V16.6868H135.699V0.307617Z" fill="white"/>
<path d="M149.083 11.1966L143.02 0.307617H138.556V16.6868H141.419V5.80083L147.478 16.6868H151.943V0.307617H149.083V11.1966Z" fill="white"/>
<path d="M160.823 7.88967V10.3531H163.158V10.5297C163.137 12.1527 162.908 13.2915 162.485 13.9127C162.061 14.5339 161.463 14.7958 160.613 14.7958C159.763 14.7958 159.24 14.3116 158.925 13.3707C158.564 12.3354 158.384 10.6302 158.384 8.34338C158.384 6.05657 158.579 4.41835 158.985 3.48658C159.342 2.63093 159.91 2.21376 160.724 2.21376C161.538 2.21376 162.106 2.44823 162.401 2.92934C162.722 3.45613 162.929 4.28742 163.001 5.40189L163.028 5.72467L166.667 5.14916L166.639 4.86597C166.474 3.26734 165.964 2.04629 165.137 1.23327C164.311 0.420246 162.869 0.0152588 160.904 0.0152588C158.336 0.0152588 156.512 0.724748 155.497 2.12546C154.481 3.52616 153.995 5.61809 153.995 8.42864C153.995 11.2392 154.496 13.3798 155.497 14.8232C156.497 16.2665 158.237 17.0278 160.628 17.0278C161.295 17.0417 161.958 16.9094 162.57 16.6398C163.183 16.3702 163.73 15.9697 164.176 15.4657L164.735 16.7172H167.051V7.88967H160.823Z" fill="white"/>
<path d="M81.9078 29.5367C83.527 28.8424 84.3442 27.4752 84.3442 25.4716C84.3629 24.2368 83.9854 23.0293 83.2687 22.0307C82.4004 20.8827 80.8322 20.3011 78.6001 20.3011H72.2461V36.6925H76.6653V30.1457H77.0108C77.5576 30.1457 77.7018 30.237 77.7258 30.2553C77.8936 30.434 78.0181 30.6498 78.0894 30.8856L80.4327 36.6986H85.1373L82.5597 30.4106C82.4107 30.0729 82.1877 29.774 81.9078 29.5367ZM76.6653 22.32H78.0593C78.3407 22.3216 78.6157 22.4051 78.8517 22.5606C79.0876 22.7161 79.2745 22.9369 79.3902 23.197C79.7548 23.8645 79.9402 24.6173 79.9279 25.3802C79.9513 26.0927 79.7686 26.7966 79.4022 27.4052C79.2661 27.6419 79.0695 27.8369 78.8332 27.9698C78.5968 28.1028 78.3295 28.1686 78.0593 28.1603H76.6653V22.32Z" fill="white"/>
<path d="M92.6448 20.0028C89.926 20.0028 88.0423 20.8737 87.0419 22.588C86.1827 24.0679 85.7471 26.0593 85.7471 28.5014C85.7471 32.6823 86.9127 35.3375 89.211 36.3941C90.3044 36.8261 91.4717 37.0331 92.6448 37.0031C95.1954 37.0031 97.004 36.2388 98.0164 34.7285C99.0288 33.2182 99.5185 31.1719 99.5185 28.541C99.5185 25.9101 99.0168 23.8152 98.0164 22.3201C97.016 20.825 95.1954 20.0028 92.6448 20.0028ZM90.3646 25.1519C90.4623 24.3698 90.7357 23.6208 91.1637 22.9626C91.3197 22.7083 91.5383 22.4997 91.798 22.3571C92.0577 22.2146 92.3495 22.143 92.6448 22.1495C94.2881 22.1495 95.1233 24.2811 95.1233 28.5014C95.1233 32.7218 94.2881 34.8564 92.6448 34.8564C92.3491 34.8629 92.0569 34.7913 91.7967 34.6488C91.5365 34.5063 91.3174 34.2976 91.1607 34.0434C90.735 33.3842 90.4627 32.6356 90.3646 31.854C90.2194 30.7438 90.1532 29.6244 90.1663 28.5045C90.153 27.3836 90.2192 26.2632 90.3646 25.1519Z" fill="white"/>
<path d="M104.743 20.3134L99.8252 36.6925H102.577L103.863 32.3351H109.006L110.292 36.6925H114.603L109.613 20.3134H104.743ZM108.288 29.8838H104.584L106.45 23.5867L108.288 29.8838Z" fill="white"/>
<path d="M126.479 21.9059C125.388 20.8493 123.775 20.3134 121.672 20.3134H115.766V36.6925H121.672C124.247 36.6925 126.043 35.9556 127.011 34.5031C127.978 33.0507 128.432 31.0684 128.432 28.5014C128.438 25.3681 127.783 23.1422 126.479 21.9059ZM120.17 22.32H121.071C121.411 22.3009 121.751 22.3657 122.06 22.5089C122.37 22.6521 122.641 22.8694 122.85 23.1422C123.315 23.7688 123.624 24.5 123.751 25.2737C123.92 26.3388 123.997 27.4167 123.982 28.4953C123.997 29.574 123.92 30.6519 123.751 31.7169C123.626 32.491 123.316 33.2226 122.85 33.8485C122.641 34.1227 122.37 34.3415 122.06 34.4858C121.75 34.6301 121.409 34.6956 121.068 34.6767H120.17V22.32Z" fill="white"/>
</svg>
